<svg width="697" height="188" xmlns="http://www.w3.org/2000/svg">
  <g fill="#0E43F1" fill-rule="nonzero">
    <path d="M61.7 73a35.8 35.8 0 0128.7 11.3L108.2 56A46 46 0 0074.6 44a51.6 51.6 0 00-37.1 15l-3.2 3.5V45.8H.6v140.8h34.6v-85.2c0-8.3 2.7-16.5 9-22 5-4.3 11.1-6 17.5-6.4zM251.3 115.2c0-41-31.8-71.9-74-71.9-42.1 0-73.9 30.8-73.9 71.7 0 40.8 32.1 71.6 74.7 71.6a81 81 0 0043.8-12.4 70.6 70.6 0 0026.5-30.6h-31.7a46.4 46.4 0 01-38 18 43.6 43.6 0 01-44.5-34.6l-.4-1.7h116.9c.4-3.3.6-6.7.7-10zM134 103l.5-1.7c5.4-20 22.2-33 42.8-33 20.5 0 38 13.3 43 33l.5 1.7H134zM477 43.2a70.8 70.8 0 00-73.1 71.7 70.8 70.8 0 0073 71.6c21.7 0 41.2-9.5 53.6-26.2l1.6-2.2.7 2.6c4 14.8 17 22.5 37.6 22.5h8.2v-26.8h-1.4c-9.4 0-15.3-5.4-15.3-14.2V46.6h-30.6v24l-2.3-3a65 65 0 00-52-24.4zm3.2 116.4a43.8 43.8 0 01-44.8-44.7A43.8 43.8 0 01480.2 70a43.7 43.7 0 0144.5 44.8 43.7 43.7 0 01-44.5 44.8zM630.3 169l.7-.5.8.5a93.7 93.7 0 0055.6 17.6h8.6v-25.3h-6.6a62 62 0 01-35.3-10.8l-1.3-.8 1-1.1a128 128 0 0036-87.3c0-37.6-19-60.9-49.7-60.9-33 0-52.6 26-52.6 69.6 0 30.8 8.4 58 24.1 79l.8 1-2 1.5c-7 5.1-10.2 7.4-18.8 10.8l11 21c11.6-4.1 17-7.1 27.7-14.3zm9-143.3c12.8 0 20.5 13.3 20.5 35.6 0 23.8-8.7 47.6-24.6 67l-1.2 1.5-1-1.6A114.2 114.2 0 01617.5 68c0-27 8-42.3 21.7-42.3zM328.3 186.6c37.1 0 64-18 64-42.8 0-20.8-18.5-34.3-56.7-41.3-23.8-4.2-35.8-11-35.8-20.5 0-9.4 12-16.4 27.8-16.4 16.4 0 28.8 8 28.8 18.4v.7h32.8V84c0-23.4-26.4-41.1-61.4-41.1-35.3 0-60.9 17.2-60.9 41 0 20.3 19.1 35 53.8 41.1 26 4.5 38.5 11.4 38.5 21 0 10.2-13 17.8-30.4 17.8-18 0-32.1-8.8-32.1-20.2v-.7h-32.9v.7c0 24.5 27.7 43 64.5 43z"/>
  </g>
</svg>
